<svg xmlns="http://www.w3.org/2000/svg" xmlns:xlink="http://www.w3.org/1999/xlink" width="80" height="73" viewBox="0 0 80 73"><defs><clipPath id="a"><rect width="80" height="73" transform="translate(1370 1633)" fill="#fff" stroke="#707070" stroke-width="1"/></clipPath></defs><g transform="translate(-1370 -1633)" clip-path="url(#a)"><g transform="translate(1373.499 1632.955)"><path d="M48.668,71.828h-3.65a2.92,2.92,0,0,0-4.866,0H34.068a6.083,6.083,0,1,1,0-12.166h14.6V71.828Zm0,0" fill="#4398d1"/><path d="M48.668,68.178H62.051l4.867,1.217,4.866-1.217V63.311l-4.866-1.217-4.867,1.217H48.668Zm0,0" fill="#c1c7c9"/><path d="M48.668,59.661h-14.6a6.083,6.083,0,1,0,0,12.166h6.083a2.907,2.907,0,0,1,3.51-1.077l5.006-5.006Zm0,0" fill="#3e8cc7"/><path d="M43.8,1.261,37.25,3.226l4.587,4.587Zm0,0" fill="#3269a1"/><path d="M37.25,3.226,31.635,4.911l8.517,8.517,1.685-5.615Zm0,0" fill="#fda72f"/><path d="M3.651,32.893,31.634,4.91l4.258,4.258L7.91,37.151Zm0,0" fill="#4398d1"/><path d="M7.91,37.152,35.892,9.169l4.259,4.258L12.168,41.411Zm0,0" fill="#3e8cc7"/><path d="M38.935,37.761V32.895a1.217,1.217,0,0,1,1.217-1.217h6.083a8.406,8.406,0,0,0-7.616-4.866,8.5,8.5,0,0,0-6.984,3.65H8.518v9.733H31.635a8.5,8.5,0,0,0,6.983,3.65,8.407,8.407,0,0,0,7.617-4.867H40.152A1.217,1.217,0,0,1,38.935,37.761Zm0,0" fill="#c1c7c9"/><path d="M18.251,34.111H31.635v2.434H18.251Zm0,0" fill="#b8bdbf"/><path d="M31.634,60.878,63.268,29.245l8.516,8.516L40.15,69.394Zm0,0" fill="#fda72f"/><path d="M37.717,66.961,69.351,35.328l2.433,2.433L40.15,69.394Zm0,0" fill="#ff9945"/><path d="M43.8,62.365a9.463,9.463,0,0,1-16.155,6.691L3.989,45.4A9.464,9.464,0,0,1,17.373,32.016L41.03,55.673A9.452,9.452,0,0,1,43.8,62.365Zm0,0" fill="#e34b87"/><path d="M7.3,38.708H4.868a5.817,5.817,0,0,1,.686-2.739L7.7,37.12A3.323,3.323,0,0,0,7.3,38.708Zm0,0" fill="#f285b0"/><path d="M12.525,48.773,6.572,42.819a5.882,5.882,0,0,1-.591-.688l1.964-1.438a3.548,3.548,0,0,0,.349.408l5.952,5.953Zm0,0" fill="#f285b0"/><path d="M58.757,33.754l1.72-1.72,3.65,3.65L62.407,37.4Zm0,0" fill="#3269a1"/><path d="M55.107,37.406l1.721-1.72,2.433,2.433-1.72,1.72Zm0,0" fill="#3269a1"/><path d="M51.458,41.055l1.721-1.72,3.65,3.65-1.72,1.721Zm0,0" fill="#3269a1"/><path d="M47.807,44.7l1.72-1.72,2.433,2.433-1.72,1.72Zm0,0" fill="#3269a1"/><path d="M44.158,48.355l1.721-1.72,3.65,3.65-1.721,1.72Zm0,0" fill="#3269a1"/><path d="M41.03,55.673,17.373,32.016a9.454,9.454,0,0,0-8.517-2.593,9.469,9.469,0,0,1,4.867,2.593L37.38,55.673a9.462,9.462,0,0,1-4.866,15.976A9.463,9.463,0,0,0,41.03,55.673Zm0,0" fill="#d94881"/><path d="M48.668,63.311v4.866l4.867-4.866Zm0,0" fill="#b8bdbf"/><path d="M72.645,36.9l-8.517-8.517a1.218,1.218,0,0,0-1.721,0L38.935,51.858,28.489,41.411h2.538a9.745,9.745,0,0,0,7.592,3.65A9.6,9.6,0,0,0,47.33,39.5a1.217,1.217,0,0,0-.576-1.622,1.2,1.2,0,0,0-.52-.118H40.152V32.895h6.083a1.217,1.217,0,0,0,1.1-1.74,9.6,9.6,0,0,0-8.712-5.56,9.744,9.744,0,0,0-7.592,3.65H26.055L41.011,14.288a1.226,1.226,0,0,0,.306-.511l3.65-12.166A1.217,1.217,0,0,0,43.452.1L31.285,3.746a1.223,1.223,0,0,0-.511.305L5.369,29.456a10.666,10.666,0,0,0-2.239,16.8L26.786,69.917a10.6,10.6,0,0,0,7.282,3.115v.013h6.083a1.219,1.219,0,0,0,1.012-.542,1.757,1.757,0,0,1,2.454-.388,1.779,1.779,0,0,1,.388.388,1.219,1.219,0,0,0,1.013.542h3.65a1.217,1.217,0,0,0,1.217-1.217V69.394H61.9l4.721,1.18a1.213,1.213,0,0,0,.591,0l4.866-1.217A1.216,1.216,0,0,0,73,68.178V63.311a1.216,1.216,0,0,0-.921-1.18l-4.866-1.217a1.181,1.181,0,0,0-.591,0L61.9,62.095H49.172L72.645,38.622A1.215,1.215,0,0,0,72.645,36.9ZM49.885,64.528H62.051a1.205,1.205,0,0,0,.3-.036l4.571-1.142,3.65.912v2.966l-3.65.913L62.347,67a1.206,1.206,0,0,0-.3-.037H49.885Zm-18.25-32.85a1.216,1.216,0,0,0,1-.521,7.313,7.313,0,0,1,5.986-3.129,7.122,7.122,0,0,1,5.375,2.433H40.152A2.433,2.433,0,0,0,37.718,32.9v4.866A2.433,2.433,0,0,0,40.152,40.2h3.842a7.123,7.123,0,0,1-5.375,2.433A7.313,7.313,0,0,1,32.632,39.5a1.216,1.216,0,0,0-1-.521h-5.58l-2.433-2.433h8.013V34.112H21.188l-2.433-2.434Zm-9.021-2.433H17.538L35.893,10.89l2.538,2.538ZM41.986,3.076l-.73,2.433-1.7-1.7ZM36.9,4.6l3.558,3.557-.891,2.969L33.935,5.492ZM31.635,6.632,34.173,9.17l-19.6,19.6a10.638,10.638,0,0,0-3.893-.738c-.157,0-.31.017-.466.023Zm2.7,63.98A8.2,8.2,0,0,1,28.507,68.2L4.85,44.539A8.247,8.247,0,0,1,16.513,32.876L40.17,56.533a8.247,8.247,0,0,1-5.832,14.079Zm13.113-2.434v2.434H45.6a4.133,4.133,0,0,0-3.016-1.3c-.056,0-.109.015-.164.017a10.8,10.8,0,0,0,1.169-1.65l3.861-3.862ZM45,62.825c0-.156.023-.309.023-.466a10.611,10.611,0,0,0-3.128-7.552l-1.235-1.229,4.363-4.363L47.808,52l1.72-1.72-2.79-2.79,1.93-1.93,1.573,1.573,1.721-1.72-1.574-1.573,1.93-1.929,2.79,2.79,1.72-1.72-2.79-2.79,1.93-1.93,1.573,1.573,1.721-1.72-1.573-1.573,1.93-1.93,2.79,2.79,1.721-1.721-2.79-2.79,1.93-1.93,6.8,6.8Zm0,0"/><path d="M7.7,37.12,5.554,35.969a5.817,5.817,0,0,0-.686,2.739H7.3A3.323,3.323,0,0,1,7.7,37.12Zm0,0"/><path d="M7.944,40.692,5.98,42.131a5.876,5.876,0,0,0,.591.688l5.953,5.954,1.72-1.72L8.293,41.1A3.457,3.457,0,0,1,7.944,40.692Zm0,0"/></g></g></svg>