<svg xmlns="http://www.w3.org/2000/svg" xmlns:xlink="http://www.w3.org/1999/xlink" width="540" height="540" viewBox="0 0 532 434.263"><defs><linearGradient id="a" x1="0.064" y1="0.391" x2="0.697" y2="0.661" gradientUnits="objectBoundingBox"><stop offset="0.01"/><stop offset="0.12" stop-opacity="0.749"/><stop offset="1" stop-opacity="0"/></linearGradient><linearGradient id="b" x1="0.577" y1="1.099" x2="0.407" y2="0.086" xlink:href="#a"/><linearGradient id="c" x1="0.321" y1="1.057" x2="0.582" y2="0.316" xlink:href="#a"/><linearGradient id="d" x1="0.624" y1="-0.69" x2="0.405" y2="1.412" xlink:href="#a"/><linearGradient id="e" x1="0.297" y1="-0.591" x2="0.832" y2="2.285" xlink:href="#a"/><linearGradient id="f" x1="0.498" y1="1.471" x2="0.502" y2="-0.617" xlink:href="#a"/><linearGradient id="g" x1="0.482" y1="1.326" x2="0.516" y2="-0.132" xlink:href="#a"/></defs><g transform="translate(0.002 -0.006)"><rect width="483.896" height="309.947" rx="8.95" transform="translate(47.306 16.08)" fill="#0090ff" opacity="0.48"/><path d="M526.515,315.538c-.353,10.151-2.678,20.485-8.361,28.9-7.159,10.6-18.786,17.153-30.048,23.32l-31.929,17.571c-13.992,7.708-28.741,15.6-44.692,15.821-11.287.17-22.209-3.553-33.065-6.676-50.7-14.632-104.108-16.683-156.521-12.986-26.847,1.894-53.563,5.226-80.162,9.236-21.281,3.161-46.822,13.678-66.013,1.228C54.822,378.363,41.993,356.363,30.183,335,19.9,316.466,9.476,297.47,6.079,276.555c-5.226-32.321,7.29-65.517,26.873-91.776A210.524,210.524,0,0,1,52.2,162.57V281.232a11.758,11.758,0,0,0,11.693,11.758h460.5A91.669,91.669,0,0,1,526.515,315.538Z" transform="translate(-4.89 33.116)" fill="#0090ff" opacity="0.18"/><path d="M301.349,28.873H178.22a73.968,73.968,0,0,1,15-8.831c9.733-4.246,20.341-6.14,30.923-6.9C250.765,11.224,277.468,17.1,301.349,28.873Z" transform="translate(48.221 -12.78)" fill="#0090ff" opacity="0.18"/><path d="M197.538,244.638a19.1,19.1,0,0,0,4.272,4.128,19.962,19.962,0,0,0,7.839,2.325l41.7,6.284a2.416,2.416,0,0,1,1.163.392,2.378,2.378,0,0,1,.614,1.881A73.38,73.38,0,0,1,250,282.72a3.188,3.188,0,0,1-.849,1.62,3.345,3.345,0,0,1-1.907.575c-14.031,1.189-28.127.81-42.2.431a28.741,28.741,0,0,1-7.028-.771c-3.919-1.1-7.12-3.776-10.072-6.532-6.336-5.892-31.981-29.577-33.536-32.791a87.779,87.779,0,0,1-4.964-14.266c-1.306-4.7,8.243-5.291,8.048-10.177a31.576,31.576,0,0,1,1.2-10.007,17.088,17.088,0,0,1,4.18-7.734c1.437-1.306-.784-10.164,1.2-10.268,2.3,7.838,12.7,23.515,17.219,30.23a253.024,253.024,0,0,0,16.239,21.608Z" transform="translate(39.368 42.379)" fill="#0090ff"/><path d="M197.538,244.638a19.1,19.1,0,0,0,4.272,4.128,19.962,19.962,0,0,0,7.839,2.325l41.7,6.284a2.416,2.416,0,0,1,1.163.392,2.378,2.378,0,0,1,.614,1.881A73.38,73.38,0,0,1,250,282.72a3.188,3.188,0,0,1-.849,1.62,3.345,3.345,0,0,1-1.907.575c-14.031,1.189-28.127.81-42.2.431a28.741,28.741,0,0,1-7.028-.771c-3.919-1.1-7.12-3.776-10.072-6.532-6.336-5.892-31.981-29.577-33.536-32.791a87.779,87.779,0,0,1-4.964-14.266c-1.306-4.7,8.243-5.291,8.048-10.177a31.576,31.576,0,0,1,1.2-10.007,17.088,17.088,0,0,1,4.18-7.734c1.437-1.306-.784-10.164,1.2-10.268,2.3,7.838,12.7,23.515,17.219,30.23a253.024,253.024,0,0,0,16.239,21.608Z" transform="translate(39.368 42.379)" fill="url(#a)"/><path d="M114.1,183.507a76.476,76.476,0,0,0-7.838,8.1c-5.774,7.094-9.615,15.533-13.195,23.947-9.524,22.392-17.819,46.339-15.35,70.546a9.145,9.145,0,0,0,1.15,4.154,8.087,8.087,0,0,0,4.481,2.887c4.586,1.463,9.485,1.529,14.371,1.568,18.825.17,37.677.34,56.489-.575,2.913-.144,6-.366,8.413-2.012a13.639,13.639,0,0,0,4.1-5.134c5.056-9.511,6.532-20.511,10.451-30.518,5.226-13.064,19.6-24.939,16.565-38.709C180.776,159.3,120.028,178.112,114.1,183.507Z" transform="translate(17.29 37.327)" fill="#0090ff"/><path d="M114.1,183.507a76.476,76.476,0,0,0-7.838,8.1c-5.774,7.094-9.615,15.533-13.195,23.947-9.524,22.392-17.819,46.339-15.35,70.546a9.145,9.145,0,0,0,1.15,4.154,8.087,8.087,0,0,0,4.481,2.887c4.586,1.463,9.485,1.529,14.371,1.568,18.825.17,37.677.34,56.489-.575,2.913-.144,6-.366,8.413-2.012a13.639,13.639,0,0,0,4.1-5.134c5.056-9.511,6.532-20.511,10.451-30.518,5.226-13.064,19.6-24.939,16.565-38.709C180.776,159.3,120.028,178.112,114.1,183.507Z" transform="translate(17.29 37.327)" fill="url(#b)"/><path d="M185.178,151.5c-2.208,10.726-4.52,21.739-10.451,30.975a23.986,23.986,0,0,1-9.053,8.91c-3.828,1.92-8.688,2.182-12.267-.17-1.79-1.163-3.749-2.992-5.7-2.129-1.411.64-1.868,2.391-2.064,3.919a39.453,39.453,0,0,0,.157,11.3,9.549,9.549,0,0,1,.183,3.214,5.3,5.3,0,0,1-4.246,3.919,10.125,10.125,0,0,1-5.918-.928A19.126,19.126,0,0,1,124.8,196.374a45.806,45.806,0,0,1-.392-6.271c-.248-9.3-1.724-18.564-1.424-27.853s2.613-18.956,8.923-25.815a40.656,40.656,0,0,1,12.751-8.831c7.12-3.4,15.063-5.787,22.849-4.546a21.713,21.713,0,0,1,15.115,10.086C186.693,139.4,186.706,144.065,185.178,151.5Z" transform="translate(31.282 20.907)" fill="#ffdad2"/><path d="M207.931,134.265A21.621,21.621,0,0,0,196.5,112.5c-3.462-1.724-7.316-2.456-11.052-3.449-8.753-2.352-17.153-6.245-26.128-7.081s-19.3,2.312-23.293,10.451c-.732,1.489-1.45,3.292-3.057,3.684a6.7,6.7,0,0,1-2.613-.235c-6-1.058-11.392,4.063-14.1,9.511-4.363,8.818-4.586,19.1-3.632,28.885.875,9.053,3.188,18.838,10.451,24.352.719.549,1.777,1.045,2.469.457a2.064,2.064,0,0,0,.562-1.215,39.713,39.713,0,0,0,.81-10.451c-.144-2.613-.562-5.382.118-7.956s2.861-5.017,5.526-4.938c2.469,0,4.455,2.3,5.069,4.7a17.35,17.35,0,0,1-.274,7.368c.392.98,1.764-.2,2-1.215,1.8-8.2,2.208-17.388,7.9-23.515a10.1,10.1,0,0,1,2.456,4.272,6.532,6.532,0,0,1,6.728-1.672,15.991,15.991,0,0,1,4.494,2.939C174.813,158.225,205.018,155.011,207.931,134.265Z" transform="translate(27.982 14.507)" fill="#3f3d56"/><path d="M110.083,192.581c-4.39,3.188-6.532,8.792-6.663,14.2s5.591,39.728,10.987,49.474c4.181,7.577,12.894,27.356,26.128,32.817,3.919,1.62,61.859.941,88.745-1.973-.17-6.362-.483-12.724-.9-19.087a3.619,3.619,0,0,0-.719-2.339c-.679-.705-1.646-5.317-2.613-5.317-15.677.065-31.485,4.86-47.162,5.226a27.591,27.591,0,0,1-6.806-.4,19.6,19.6,0,0,1-5.226-2.143c-12.1-6.846-18.786-20.289-23.515-33.366-3.619-10.086-6.532-20.524-11.758-29.943-1.855-3.357-3.514-6.624-7.172-8.1C119.111,189.89,114.068,189.694,110.083,192.581Z" transform="translate(25.301 41.631)" fill="#0090ff"/><path d="M110.083,192.581c-4.39,3.188-6.532,8.792-6.663,14.2s5.591,39.728,10.987,49.474c4.181,7.577,12.894,27.356,26.128,32.817,3.919,1.62,61.859.941,88.745-1.973-.17-6.362-.483-12.724-.9-19.087a3.619,3.619,0,0,0-.719-2.339c-.679-.705-1.646-5.317-2.613-5.317-15.677.065-31.485,4.86-47.162,5.226a27.591,27.591,0,0,1-6.806-.4,19.6,19.6,0,0,1-5.226-2.143c-12.1-6.846-18.786-20.289-23.515-33.366-3.619-10.086-6.532-20.524-11.758-29.943-1.855-3.357-3.514-6.624-7.172-8.1C119.111,189.89,114.068,189.694,110.083,192.581Z" transform="translate(25.301 41.631)" fill="url(#c)"/><path d="M202.156,243.039c8.139-.771,17.179,1.045,22.34,7.381a3.919,3.919,0,0,1,1.019,2.09,3.5,3.5,0,0,1-.627,1.973c-3.044,5.056-9.654,6.258-15.207,8.257a39.481,39.481,0,0,0-8.217,4.076,13.065,13.065,0,0,1-4.912,2.43c-3.919.588-7.172-2.913-8.949-6.414-2.038-3.919-5.226-11.967-1.306-15.677C189.5,244.215,198.132,243.4,202.156,243.039Z" transform="translate(50.126 57.722)" fill="#ffdad2"/><path d="M258.257,242.665A11.144,11.144,0,0,1,261.9,246a4.8,4.8,0,0,1,.34,4.742,6.6,6.6,0,0,1-2.443,2.195c-7.224,4.3-16.082,5.069-23.4,9.145a12.711,12.711,0,0,1-5.043,2.195,6.963,6.963,0,0,1-5.591-2.613,17.768,17.768,0,0,1-3.018-5.578C214.192,233.611,245.951,234.826,258.257,242.665Z" transform="translate(61.423 56.084)" fill="#ffdad2"/><path d="M86.23,221h33.849v27.8a9.8,9.8,0,0,1-9.8,9.8H96.028a9.8,9.8,0,0,1-9.8-9.8Z" transform="translate(26.423 67.716)" fill="#fff"/><path d="M110.39,226.16h10.255a8.165,8.165,0,0,1,8.165,8.165v3.384a8.165,8.165,0,0,1-8.165,8.165H110.39Z" transform="translate(33.826 69.297)" fill="none" stroke="#fff" stroke-miterlimit="10" stroke-width="3.3"/><rect width="473.052" height="14.514" rx="5.56" transform="translate(58.946 325.713)" fill="#0090ff"/><rect width="259.179" height="89.894" transform="translate(181.265 340.45)" fill="#0090ff"/><rect width="101.809" height="89.894" transform="translate(81.22 340.45)" fill="#0090ff"/><rect width="257.481" height="89.894" transform="translate(182.977 340.45)" fill="url(#d)"/><rect width="101.809" height="89.894" transform="translate(81.22 340.45)" fill="url(#e)"/><path d="M524.983,36.808V94.029H41.1V36.808A11.758,11.758,0,0,1,52.793,25.05h460.5a11.758,11.758,0,0,1,11.693,11.758Z" transform="translate(6.206 -9.022)" fill="#0090ff" opacity="0.18"/><rect width="184.831" height="17.036" rx="6.52" transform="translate(432.476 325.465) rotate(180)" fill="#0090ff"/><rect width="184.831" height="17.036" rx="6.52" transform="translate(432.476 325.465) rotate(180)" fill="url(#f)"/><path d="M245.51,284.559H374.283l33.967-86.132a7.577,7.577,0,0,0-7.042-10.347H300.157A24.4,24.4,0,0,0,277.5,203.522Z" transform="translate(68.84 40.933)" fill="#0090ff"/><path d="M250.52,283.495H372.827l32.255-81.821a7.185,7.185,0,0,0-6.689-9.824H302.424a23.163,23.163,0,0,0-21.556,14.658Z" transform="translate(70.375 42.088)" fill="#0090ff"/><path d="M250.52,283.495H372.827l32.255-81.821a7.185,7.185,0,0,0-6.689-9.824H302.424a23.163,23.163,0,0,0-21.556,14.658Z" transform="translate(70.375 42.088)" fill="url(#g)"/><rect width="181.069" height="10.19" transform="translate(278.293 201.983)" fill="#fff" opacity="0.51"/><rect width="128.721" height="10.19" transform="translate(278.293 184.542)" fill="#fff"/><rect width="86.171" height="10.19" transform="translate(424.611 184.542)" fill="#fff"/><rect width="132.483" height="9.053" transform="translate(377.998 120.032)" fill="#fff"/><rect width="141.733" height="9.053" transform="translate(350.25 136.113)" fill="#fff" opacity="0.51"/><rect width="87.138" height="9.053" transform="translate(280.749 120.032)" fill="#fff"/><rect width="191.507" height="9.053" transform="translate(318.974 151.712)" fill="#fff"/><rect width="28.114" height="9.053" transform="translate(280.749 151.712)" fill="#fff" opacity="0.51"/><rect width="126.409" height="9.053" transform="translate(384.073 167.794)" fill="#fff" opacity="0.51"/><rect width="87.138" height="9.053" transform="translate(280.749 167.794)" fill="#fff"/><rect width="56.032" height="9.053" transform="translate(280.749 135.735)" fill="#fff"/><rect width="132.483" height="9.053" transform="translate(329.543 89.553)" fill="#fff"/><rect width="141.733" height="9.053" transform="translate(301.795 105.635)" fill="#fff" opacity="0.51"/><rect width="87.138" height="9.053" transform="translate(232.307 89.553)" fill="#fff"/><rect width="132.483" height="9.053" transform="translate(328.368 70.806)" fill="#fff"/><rect width="87.138" height="9.053" transform="translate(231.131 53.796)" fill="#fff"/><rect width="87.138" height="9.053" transform="translate(231.131 38.276)" fill="#fff"/><rect width="56.032" height="9.053" transform="translate(232.307 105.256)" fill="#fff"/></g></svg>